<?xml version="1.0" encoding="UTF-8" standalone="no"?>
<svg width="327px" height="26px" viewBox="0 0 327 26" version="1.1" xmlns="http://www.w3.org/2000/svg" xmlns:xlink="http://www.w3.org/1999/xlink" xmlns:sketch="http://www.bohemiancoding.com/sketch/ns">
    <!-- Generator: Sketch 3.3.3 (12072) - http://www.bohemiancoding.com/sketch -->
    <title>Slice 1</title>
    <desc>Created with Sketch.</desc>
    <defs></defs>
    <g id="Page-1" stroke="none" stroke-width="1" fill="none" fill-rule="evenodd" sketch:type="MSPage">
        <g id="Group" sketch:type="MSLayerGroup" transform="translate(-0.203000, -0.334000)">
            <g transform="translate(163.000000, 13.000000) scale(-1, -1) translate(-163.000000, -13.000000) " id="breadboard">
                <g>
                    <rect id="Rectangle-path" fill="#8D3A2A" sketch:type="MSShapeGroup" x="13.797" y="0.999" width="312" height="24.666"></rect>
                    <rect id="Rectangle-path" fill="#292725" sketch:type="MSShapeGroup" x="53.727" y="8.66499" width="264" height="16"></rect>
                    <rect id="Rectangle-path" fill="#DBD9C3" sketch:type="MSShapeGroup" x="299.831" y="8.95099" width="15.667" height="13.667"></rect>
                    <rect id="Rectangle-path" fill="#DBD9C3" sketch:type="MSShapeGroup" x="281.449" y="8.95099" width="15.667" height="13.667"></rect>
                    <rect id="Rectangle-path" fill="#DBD9C3" sketch:type="MSShapeGroup" x="263.068" y="8.95199" width="15.667" height="13.667"></rect>
                    <rect id="Rectangle-path" fill="#DBD9C3" sketch:type="MSShapeGroup" x="244.686" y="8.94999" width="15.667" height="13.667"></rect>
                    <rect id="Rectangle-path" fill="#DBD9C3" sketch:type="MSShapeGroup" x="226.304" y="8.94899" width="15.667" height="13.667"></rect>
                    <rect id="Rectangle-path" fill="#DBD9C3" sketch:type="MSShapeGroup" x="207.923" y="8.95099" width="15.667" height="13.667"></rect>
                    <rect id="Rectangle-path" fill="#DBD9C3" sketch:type="MSShapeGroup" x="189.542" y="8.95099" width="15.667" height="13.667"></rect>
                    <rect id="Rectangle-path" fill="#DBD9C3" sketch:type="MSShapeGroup" x="171.16" y="8.94899" width="15.667" height="13.667"></rect>
                    <rect id="Rectangle-path" fill="#DBD9C3" sketch:type="MSShapeGroup" x="152.726" y="8.94899" width="15.667" height="13.667"></rect>
                    <rect id="Rectangle-path" fill="#DBD9C3" sketch:type="MSShapeGroup" x="134.344" y="8.94899" width="15.667" height="13.667"></rect>
                    <rect id="Rectangle-path" fill="#DBD9C3" sketch:type="MSShapeGroup" x="115.963" y="8.94999" width="15.667" height="13.667"></rect>
                    <rect id="Rectangle-path" fill="#DBD9C3" sketch:type="MSShapeGroup" x="97.582" y="8.94799" width="15.667" height="13.667"></rect>
                    <rect id="Rectangle-path" fill="#DBD9C3" sketch:type="MSShapeGroup" x="79.2" y="8.94699" width="15.667" height="13.667"></rect>
                    <rect id="Rectangle-path" fill="#DBD9C3" sketch:type="MSShapeGroup" x="60.823" y="8.94799" width="15.667" height="13.667"></rect>
                    <rect id="Rectangle-path" fill="#DBD9C3" sketch:type="MSShapeGroup" x="317.391" y="10.82999" width="4.834" height="13.667"></rect>
                    <path d="M319.482478,11.96399 L320.739635,11.95299 L321.417985,11.96499 L321.38832,10.73999 L318.846978,4.892 L36.0460179,2.9170001 C36.0460179,2.9170001 34.321465,4.6040001 33.9061484,4.9430001 C33.1757185,4.8140001 30.2757537,4.9620001 29.3495317,4.9000001 C29.3225031,5.9540001 29.3086592,12.1809901 29.308,11.9499901 C29.7094727,11.9909901 34.3484936,11.8879902 34.3484936,11.8879902 C34.3484936,11.8879902 36.1046896,7.8039902 36.1040304,7.8039902 L318.102045,7.8269902 L319.482478,11.96399 L319.482478,11.96399 Z" id="Shape" fill="#DBD9C3" sketch:type="MSShapeGroup"></path>
                    <rect id="Rectangle-path" fill="#DBD9C3" sketch:type="MSShapeGroup" x="47.395" y="8.66299" width="6" height="13.333"></rect>
                    <rect id="Rectangle-path" fill="#DBD9C3" sketch:type="MSShapeGroup" x="38.936" y="16.83" width="8.458" height="2"></rect>
                    <rect id="Rectangle-path" fill="#DBD9C3" sketch:type="MSShapeGroup" x="29.349" y="12.848" width="10" height="7.31199"></rect>
                    <g id="connector0terminal" transform="translate(0.007000, 15.527000)"></g>
                    <g id="connector1terminal" transform="translate(0.007000, 8.329990)"></g>
                    <rect id="connector0pin" fill="#8C8C8C" sketch:type="MSShapeGroup" x="0" y="15.527" width="7.874" height="1.815"></rect>
                    <rect id="connector1pin" fill="#8C8C8C" sketch:type="MSShapeGroup" x="0" y="8.32999" width="7.874" height="1.815"></rect>
                    <rect id="rect6" fill="#8C8C8C" sketch:type="MSShapeGroup" x="0.071" y="8.32099" width="22.004" height="1.815"></rect>
                    <rect id="rect8" fill="#8C8C8C" sketch:type="MSShapeGroup" x="0.071" y="15.52" width="22.004" height="1.814"></rect>
                    <path d="M11.784,11.74999 L10.277,10.13599 L10.277,8.32199 L11.784,6.71 L30.146,6.71 L30.146,11.74999 L11.784,11.74999 Z" id="polygon23" fill="#8C8C8C" sketch:type="MSShapeGroup"></path>
                    <path d="M11.796,18.948 L10.277,17.333 L10.277,15.521 L11.796,13.909 L30.312,13.909 L30.312,18.948 L11.796,18.948 Z" id="polygon25" fill="#8C8C8C" sketch:type="MSShapeGroup"></path>
                </g>
            </g>
        </g>
    </g>
</svg>