<?xml version='1.0' encoding='UTF-8' standalone='no'?>
<!-- Created with Fritzing (http://www.fritzing.org/) -->
<svg xmlns:svg='http://www.w3.org/2000/svg' xmlns='http://www.w3.org/2000/svg' version='1.2' baseProfile='tiny' x='0in' y='0in' width='2.3in' height='1.4in' viewBox='0 0 165.6 100.8' >
<g partID='854317360'><g transform='translate(0,100.8)' ><g transform='matrix(0,-1,1,0,0,0)'  ><g transform="matrix(1, 0, 0, 1, 0, -122.4)">
<g id="breadboard">
<g>
<path stroke-opacity="1" d="m50.4,194.4,0,79.2" fill="none" stroke="#e6c739" stroke-width="5.04" id="path3846" style="color:#000000;stroke-linecap:butt;stroke-linejoin:miter;stroke-miterlimit:4;stroke-dasharray:none;stroke-dashoffset:0;marker:none;visibility:visible;display:inline;overflow:visible;enable-background:accumulate"/>
<path stroke-opacity="1" d="m43.2,194.4,0,79.2" fill="none" stroke="#d2382b" stroke-width="5.04" id="path3848" style="color:#000000;stroke-linecap:butt;stroke-linejoin:miter;stroke-miterlimit:4;stroke-dasharray:none;stroke-dashoffset:0;marker:none;visibility:visible;display:inline;overflow:visible;enable-background:accumulate"/>
<path stroke-opacity="1" d="m57.6,194.4,0,79.2" fill="none" stroke="#323232" stroke-width="5.04" id="path3850" style="color:#000000;stroke-linecap:butt;stroke-linejoin:miter;stroke-miterlimit:4;stroke-dasharray:none;stroke-dashoffset:0;marker:none;visibility:visible;display:inline;overflow:visible;enable-background:accumulate"/>
<path stroke-opacity="0.25" d="m41.76,272.16,0,-72.36" fill="none" stroke="#ffffff" stroke-width="0.72" id="path3852" style="color:#000000;stroke-linecap:round;stroke-linejoin:miter;stroke-miterlimit:4;stroke-dasharray:none;stroke-dashoffset:0;marker:none;visibility:visible;display:inline;overflow:visible;enable-background:accumulate"/>
<path stroke-opacity="0.25" d="M48.96,272.16,48.96,199.8" fill="none" stroke="#ffffff" stroke-width="0.72" id="path3854" style="color:#000000;stroke-linecap:round;stroke-linejoin:miter;stroke-miterlimit:4;stroke-dasharray:none;stroke-dashoffset:0;marker:none;visibility:visible;display:inline;overflow:visible;enable-background:accumulate"/>
<path stroke-opacity="0.25" d="M56.16,272.16,56.16,199.8" fill="none" stroke="#ffffff" stroke-width="0.72" id="path3856" style="color:#000000;stroke-linecap:round;stroke-linejoin:miter;stroke-miterlimit:4;stroke-dasharray:none;stroke-dashoffset:0;marker:none;visibility:visible;display:inline;overflow:visible;enable-background:accumulate"/>
<rect width="2.16" x="42.12" fill="#cccccc" y="273.6" stroke="none" height="7.2" id="rect3858" style="opacity:0.95;display:inline"/>
<rect width="2.16" x="49.32" fill="#cccccc" y="273.6" stroke="none" height="7.2" id="rect3900" style="opacity:0.95;display:inline"/>
<rect width="2.16" x="56.52" fill="#cccccc" y="273.6" stroke="none" height="7.2" id="rect3902" style="opacity:0.95;display:inline"/>
<rect width="2.88" x="41.76" fill="none" y="279.36" stroke="none" height="2.88" id="connector1pin" style="opacity:0.51583707;display:inline"/>
<rect width="2.88" x="48.96" fill="none" y="279.36" stroke="none" height="2.88" id="connector2pin" style="opacity:0.51583707;display:inline"/>
<rect width="2.88" x="56.16" fill="none" y="279.36" stroke="none" height="2.88" id="connector3pin" style="opacity:0.51583707;display:inline"/>
<path d="m3.6,129.6,0,64.8,93.6,0,0,-64.8,-93.6,0zM7.2,159.125c1.59058,0,2.875,1.28442,2.875,2.875,0,1.59058,-1.28442,2.875,-2.875,2.875,-1.59058,0,-2.875,-1.28442,-2.875,-2.875,0,-1.59058,1.28442,-2.875,2.875,-2.875zm86.4,0c1.59058,0,2.875,1.28442,2.875,2.875,0,1.59058,-1.28442,2.875,-2.875,2.875,-1.59058,0,-2.875,-1.28442,-2.875,-2.875,0,-1.59058,1.28442,-2.875,2.875,-2.875z" fill="#2ca02c" stroke="none" id="rect2999" style="display:inline"/>
<rect stroke-opacity="1" width="72" x="14.4" fill="#dbe3e2" y="126" stroke="#000000" height="72" stroke-width="0.144" id="rect3006" fill-opacity="1" style="fill-rule:evenodd;stroke-linecap:round;stroke-linejoin:miter;stroke-miterlimit:4;stroke-dasharray:none;display:inline"/>
<g transform="matrix(1, 0, 0, 1, -3.6, -86.4)">
<path stroke-opacity="0.39130435" d="m61.2944,228.069a21.6,21.6,0,0,1,12.417,11.498" fill="#b7c8be" stroke="#ffffff" stroke-width="10.8" id="path3826" fill-opacity="1" style="opacity:0.95;fill-rule:evenodd;stroke-linecap:butt;stroke-linejoin:miter;stroke-miterlimit:4;stroke-dasharray:none;display:inline"/>
</g>
<g transform="matrix(1, 0, 0, 1, -3.6, -86.4)">
<path stroke-opacity="0.48369565" d="m90,248.4a36,36,0,1,1,-72,0,36,36,0,1,1,72,0z" fill="url(#radialGradient3947)" stroke="#000000" stroke-width="0.144" id="path3780" fill-opacity="1" style="opacity:0.95;fill-rule:evenodd;stroke-linecap:round;stroke-linejoin:miter;stroke-miterlimit:4;stroke-dasharray:none;display:inline"/>
</g>
<g transform="matrix(1, 0, 0, 1, -3.6, -86.4)">
<path stroke-opacity="0.66847827" d="m40.9324,236.021a18,18,0,0,1,4.22924,-3.30174" fill="none" stroke="#ffffff" stroke-width="18" id="path3824" style="opacity:0.66515838;stroke-linecap:butt;stroke-linejoin:miter;stroke-miterlimit:4;stroke-dasharray:none;display:inline"/>
</g>
</g>
</g>
</g>
</g></g></g></svg>