<?xml version='1.0' encoding='UTF-8' standalone='no'?>
<!-- Created with Fritzing (http://www.fritzing.org/) -->
<svg xmlns:svg='http://www.w3.org/2000/svg' xmlns='http://www.w3.org/2000/svg' version='1.2' baseProfile='tiny' x='0in' y='0in' width='2.185in' height='0.7in' viewBox='0 0 157.32 50.4' >
<g partID='854323140'><g transform='translate(0,50.4)' ><g transform='matrix(0,-1,1,0,0,0)'  ><g xmlns="http://www.w3.org/2000/svg" id="breadboard">
 <g xmlns="http://www.w3.org/2000/svg" id="g9">
  <rect xmlns="http://www.w3.org/2000/svg" width="19.4666" enable-background="new    " x="15.4685" opacity="0.75" fill="#00947E" y="41.04" height="106.219" id="rect11"/>
  <circle xmlns="http://www.w3.org/2000/svg" cy="25.2" id="circle13" r="25.2" cx="25.2007"/>
  <rect xmlns="http://www.w3.org/2000/svg" width="19.4659" x="15.4678" y="43.2734" height="7.50096" id="rect15"/>
  <path xmlns="http://www.w3.org/2000/svg" d="M4.716,25.2c0,9.31752,6.22368,17.172,14.7384,19.6567l0,112.465l4.32,0L23.7744,45.63l0,-1.01664l0,-0.22248c-3.01752,-0.22248,-5.84064,-1.14192,-8.3124,-2.59488l15.2424,0c0.39672,-0.13248,0.78624,-0.27432,1.16856,-0.43344L14.7614,41.3626c-1.1016,-0.71136,-2.12832,-1.53144,-3.05928,-2.44656l24.336,0c0.17856,-0.1404,0.35352,-0.28512,0.5256,-0.43344L11.2795,38.4826c-0.72576,-0.7596,-1.38816,-1.57752,-1.98216,-2.44656l29.6208,0c0.11304,-0.14328,0.22608,-0.28512,0.33696,-0.43344L9.0072,35.6026c-0.50184,-0.77904,-0.94896,-1.59624,-1.33632,-2.44656l33.0991,0c0.07488,-0.14328,0.14832,-0.28656,0.21816,-0.43344L7.48512,32.7226c-0.33696,-0.79056,-0.62064,-1.60704,-0.85032,-2.44656l35.3002,0c0.0432,-0.14328,0.08136,-0.288,0.1224,-0.43344L6.51816,29.8426c-0.198,-0.79704,-0.342,-1.61424,-0.4356,-2.44656L42.5448,27.396c0.01584,-0.14472,0.04032,-0.288,0.05328,-0.43344L6.03504,26.9626C5.98248,26.383,5.95296,25.7947,5.95296,25.2c0,-0.2304,0.02232,-0.45576,0.03096,-0.68328l36.6854,0c-0.00648,-0.14472,-0.01368,-0.28944,-0.02088,-0.43416L6.00336,24.0826c0.04752,-0.82944,0.1332,-1.64952,0.28296,-2.44584l36.0338,0c-0.02952,-0.14616,-0.06624,-0.288,-0.10008,-0.43416L6.38496,21.2026c0.17712,-0.83664,0.40392,-1.65384,0.68544,-2.44584l34.3836,0c-0.05688,-0.14472,-0.11304,-0.28944,-0.17424,-0.43416l-34.056,0c0.32472,-0.84816,0.71568,-1.66248,1.15272,-2.44584l31.613,0c-0.09144,-0.14472,-0.18216,-0.29088,-0.27936,-0.43416L8.60688,15.4426c0.50904,-0.86328,1.09224,-1.67616,1.72512,-2.44584l27.3838,0c-0.14112,-0.1476,-0.28872,-0.29088,-0.43632,-0.43416l-26.5824,0c0.78048,-0.89424,1.6452,-1.71,2.57688,-2.44584l20.7655,0c-0.25488,-0.15048,-0.51768,-0.2952,-0.78192,-0.43416L13.8384,9.68256c1.368,-1.00296,2.87064,-1.83096,4.48056,-2.44584l8.7804,0L27.0994,6.80328L19.5998,6.80328c0.74736,-0.22536,1.50624,-0.42624,2.2896,-0.56232L21.8894,4.98672C12.1507,6.57,4.716,15.0149,4.716,25.2z" fill="#808080" id="path17"/>
  <path xmlns="http://www.w3.org/2000/svg" d="M28.5142,6.24096c2.08008,0.36144,4.03488,1.06848,5.82912,2.03904L20.7814,8.28c-0.47664,0.12384,-0.94464,0.27,-1.40328,0.43344l15.7298,0c1.16496,0.70056,2.24568,1.5228,3.2328,2.44656L14.7794,11.16c-0.18792,0.1404,-0.37224,0.28512,-0.5544,0.43344l24.5815,0c0.75888,0.75672,1.45512,1.57392,2.0772,2.44656L11.7418,14.04c-0.11736,0.14184,-0.22968,0.28656,-0.34272,0.43344l29.7662,0c0.52488,0.77904,1.00584,1.59192,1.41696,2.44656L9.7992,16.92c-0.07632,0.14184,-0.14904,0.288,-0.22176,0.43344l33.1891,0c0.3528,0.79056,0.65952,1.60488,0.90576,2.44656L8.56944,19.8c-0.04608,0.14328,-0.09,0.288,-0.13392,0.43344l35.3578,0c0.2124,0.7956,0.36288,1.61424,0.4716,2.44656L7.89912,22.68c-0.02016,0.14328,-0.03744,0.288,-0.05472,0.43344l36.4802,0c0.07488,0.68616,0.12528,1.38096,0.12528,2.08656c0,0.12096,-0.0072,0.24048,-0.01008,0.36L7.7256,25.56c0.00288,0.14472,0.00504,0.28944,0.0108,0.43344L44.4312,25.9934c-0.03384,0.83088,-0.1224,1.64664,-0.25704,2.44656L8.0208,28.44c0.02736,0.14472,0.054,0.28944,0.08496,0.43344l35.9928,0c-0.16272,0.83664,-0.38088,1.6524,-0.64584,2.44656L8.82,31.32c0.054,0.14616,0.11232,0.28944,0.16992,0.43344L43.3008,31.7534c-0.30672,0.84528,-0.67032,1.66248,-1.0872,2.44656L10.2096,34.2c0.08784,0.14616,0.18072,0.28944,0.27288,0.43344l31.4964,0c-0.48384,0.85896,-1.03176,1.67616,-1.63656,2.44656L12.3768,37.08c0.13536,0.14616,0.27144,0.29088,0.41184,0.43344l27.2009,0c-0.73872,0.88704,-1.5588,1.70568,-2.44512,2.44656L15.8328,39.96c0.23472,0.15048,0.47376,0.29376,0.71712,0.43344l20.4581,0c-1.26288,0.98136,-2.65608,1.8,-4.14288,2.44656L24.1286,42.84l0,0.43344l7.66008,0c-1.63152,0.59472,-3.35808,0.98568,-5.15952,1.11816l0,0.22248l0,1.01664L26.6292,157.32l4.32,0l0,-112.464C39.4632,42.372,45.6862,34.5175,45.6862,25.2c0,-10.1851,-7.43472,-18.63,-17.1742,-20.2133l0,1.25424L28.5142,6.24096z" fill="#808080" id="path19"/>
  <rect xmlns="http://www.w3.org/2000/svg" width="4.32" x="19.4544" fill="#B8B135" y="147.24" height="10.08" id="rect21"/>
  <rect xmlns="http://www.w3.org/2000/svg" width="4.32" x="26.6263" fill="#B8B135" y="147.24" height="10.08" id="rect23"/>
 </g>
</g>
</g></g></g></svg>