<?xml version='1.0' encoding='UTF-8' standalone='no'?>
<!-- Created with Fritzing (http://www.fritzing.org/) -->
<svg xmlns:svg='http://www.w3.org/2000/svg' xmlns='http://www.w3.org/2000/svg' version='1.2' baseProfile='tiny' x='0in' y='0in' width='0.31in' height='0.399831in' viewBox='0 0 22.32 28.7879' >
<path stroke='#8c8c8c' stroke-width='2.10863' stroke-linecap='round' stroke-linejoin='round' fill='none' d='M14.1564,22.4309L14.1564,27.7335' />
<path stroke='#8c8c8c' stroke-width='2.10863' stroke-linecap='round' stroke-linejoin='round' fill='none' d='M21.2657,22.4309L21.2657,27.7335' />
<g partID='854315550'><g  id="breadboard">
 <rect  width="2.12046" x="13.1031" fill="none" y="12.0499" height="0.996928" id="connector0pin"/>
 <rect  width="2.12243" x="20.1976" fill="none" y="12.0499" height="0.996928" id="connector1pin"/>
 <g  x1="14.367" x2="14.367" fill="none" stroke="#8C8C8C" stroke-width="2.10863" id="connector0leg" stroke-linecap="round" y1="22.5" y2="27.819"/>
 <g  x1="21.582" x2="21.582" fill="none" stroke="#8C8C8C" stroke-width="2.10863" id="connector1leg" stroke-linecap="round" y1="22.5" y2="27.819"/>
 <path  d="M10.5392,0.235275c-0.386255,-0.67492,-3.04767,0.148542,-5.94458,1.84232C1.69775,3.76938,-0.338958,5.68847,0.0472965,6.36439l8.56658,15.0137c-0.385269,-0.675917,1.65045,-2.596,4.54835,-4.28779c2.89592,-1.69278,5.55931,-2.51625,5.94458,-1.84232L10.5392,0.235275z" fill="#BABABA"/>
 <path  d="M8.49957,20.776l-0.320237,-0.120628c0.934106,-2.53818,8.43553,-6.6216,10.5087,-6.17896l-0.0679887,0.338956C16.6838,14.4136,9.3716,18.4093,8.49957,20.776L8.49957,20.776z" fill="#BFBFBF"/>
 <g transform="matrix(0.5, 0.866, -0.866, 0.5, 22.9161, -2.98769)">
  <ellipse  cy="18.5847" fill="#3F3F3F" rx="1.5194" ry="6.66745" cx="14.0155"/>
 </g>
 <g transform="matrix(0.5004, 0.8658, -0.8658, 0.5004, 22.8425, -3.07612)">
  <ellipse  cy="18.488" fill="#515151" rx="0.783348" ry="3.4404" cx="14.0559"/>
 </g>
 <g transform="matrix(0.5004, 0.8658, -0.8658, 0.5004, 22.8023, -3.22726)">
  <ellipse  cy="18.3764" rx="0.751817" ry="3.29784" cx="14.1653"/>
 </g>
 <path  d="M8.01183,21.3981c-0.418771,-0.734736,1.7953,-2.8233,4.94741,-4.66463c3.15211,-1.84232,6.04705,-2.73756,6.46582,-2.00383l0.329105,0.547313c-0.420742,-0.735733,-3.31371,0.160505,-6.46582,2.00183c-3.15211,1.84232,-5.36717,3.9279,-4.94741,4.66562L8.01183,21.3981z" fill="#6D6D6D"/>
 <path  d="M22.32,22.4309L20.2094,22.4309L20.2094,17.7064c0,-0.336962,-0.0118241,-0.939106,-0.17145,-1.23818l-1.88201,-3.51816l1.73322,-0.949075l1.88398,3.51916c0.311369,0.588188,0.547851,1.5263,0.547851,2.18626L22.321,22.4309" fill="#8C8C8C"/>
 <path  d="M13.8391,18.4372c-0.192142,0.103681,-0.54588,0.321011,-0.724227,0.426685L13.1149,22.4309l2.11061,0L15.2255,17.8909C14.7821,18.0683,14.3338,18.174,13.8391,18.4372z" fill="#8C8C8C"/>
 <path  d="M4.69615,2.33481C4.00148,2.74454,3.35904,3.16824,2.78951,3.58196l8.14978,14.2979c0.526173,-0.381823,1.11245,-0.781592,1.76574,-1.18934c1.90467,-1.12753,3.31962,-1.79746,4.3365,-2.11847L8.99126,0.415719C7.90935,0.679905,6.35054,1.35582,4.69615,2.33481z" fill="#BABABA"/>
 <polygon  points="10.5826,18.1461,10.5836,18.1451,9.86427,16.884"/>
 <path  d="M10.4062,0.501455c-0.146816,-0.261195,-0.672004,-0.269171,-1.41594,-0.0857358l8.05124,14.1554c0.474936,-0.150536,0.873014,-0.232284,1.17551,-0.237269L10.4062,0.501455z" fill="#D3D3D3"/>
 <path  d="M2.44858,3.84415l7.41569,13.0398l0.718315,1.26211c0.117256,-0.0887266,0.23057,-0.175459,0.355709,-0.26618L2.78951,3.58196C2.66831,3.67069,2.56386,3.75642,2.44858,3.84415z" fill="#A5A5A5"/>
 <path  d="M9.86427,16.884L2.44858,3.84415c-0.00394137,0.00299078,-0.0068974,0.00598157,-0.0108388,0.00996928C1.25139,4.75834,0.451287,5.59277,0.291662,6.12513l8.02365,14.1065c0.289691,-0.439645,1.08289,-1.19432,2.26826,-2.08557L9.86427,16.884z" fill="#8E8E8E"/>
 <path  d="M19.6556,15.8422c-0.0394137,0,-0.0778421,-0.0209355,-0.0985343,-0.0588188l-0.634561,-1.15245c-0.0305456,-0.054831,-0.0108388,-0.124616,0.0433551,-0.154524c0.0561646,-0.0299078,0.123168,-0.0109662,0.152728,0.0438648l0.633576,1.15245c0.0305456,0.055828,0.0118241,0.124616,-0.0433551,0.154524C19.6931,15.8372,19.6744,15.8422,19.6556,15.8422L19.6556,15.8422z" fill="#4D4D4D"/>
</g>
</g></svg>