<?xml version='1.0' encoding='UTF-8' standalone='no'?>
<!-- Created with Fritzing (http://www.fritzing.org/) -->
<svg xmlns:svg='http://www.w3.org/2000/svg' xmlns='http://www.w3.org/2000/svg' version='1.2' baseProfile='tiny' x='0in' y='0in' width='1in' height='0.9in' viewBox='0 0 72 64.8' >
<g partID='854328580'><g transform="matrix(1, 0, 0, 1, 0, -777.088)">
 <g  id="breadboard">
  <g transform="matrix(1, 0, 0, 1, 0, 777.088)">
   <path  fill="url(#linearGradient12294)" stroke-width="0.144" fill-opacity="1" stroke-opacity="1" d="m5.75,3.6,0,57.6,62.65,0,0,-57.6,-62.65,0zM19.8,5.95c0.695879,0,1.25,0.554121,1.25,1.25,0,0.695879,-0.554121,1.25,-1.25,1.25,-0.695879,0,-1.25,-0.554121,-1.25,-1.25,0,-0.695879,0.554121,-1.25,1.25,-1.25zm7.2,0c0.695879,0,1.25,0.554121,1.25,1.25,0,0.695879,-0.554121,1.25,-1.25,1.25,-0.695879,0,-1.25,-0.554121,-1.25,-1.25,0,-0.695879,0.554121,-1.25,1.25,-1.25zm7.2,0c0.695879,0,1.25,0.554121,1.25,1.25,0,0.695879,-0.554121,1.25,-1.25,1.25,-0.695879,0,-1.25,-0.554121,-1.25,-1.25,0,-0.695879,0.554121,-1.25,1.25,-1.25zm7.2,0c0.695879,0,1.25,0.554121,1.25,1.25,0,0.695879,-0.554121,1.25,-1.25,1.25,-0.695879,0,-1.25,-0.554121,-1.25,-1.25,0,-0.695879,0.554121,-1.25,1.25,-1.25zm7.2,0c0.695879,0,1.25,0.554121,1.25,1.25,0,0.695879,-0.554121,1.25,-1.25,1.25,-0.695879,0,-1.25,-0.554121,-1.25,-1.25,0,-0.695879,0.554121,-1.25,1.25,-1.25zm7.2,0c0.695879,0,1.25,0.554121,1.25,1.25,0,0.695879,-0.554121,1.25,-1.25,1.25,-0.695879,0,-1.25,-0.554121,-1.25,-1.25,0,-0.695879,0.554121,-1.25,1.25,-1.25zm7.2,0c0.695879,0,1.25,0.554121,1.25,1.25,0,0.695879,-0.554121,1.25,-1.25,1.25,-0.695879,0,-1.25,-0.554121,-1.25,-1.25,0,-0.695879,0.554121,-1.25,1.25,-1.25zm-50.4,7.55c2.48528,0,4.5,2.01472,4.5,4.5,0,2.48528,-2.01472,4.5,-4.5,4.5,-2.48528,0,-4.5,-2.01472,-4.5,-4.5,0,-2.48528,2.01472,-4.5,4.5,-4.5zM62.1,50.4c2.48528,0,4.5,2.01472,4.5,4.5,0,2.48528,-2.01472,4.5,-4.5,4.5C59.6147,59.4,57.6,57.3853,57.6,54.9,57.6,52.4147,59.6147,50.4,62.1,50.4z" stroke="#000000" style="stroke-miterlimit:4;stroke-dasharray:none"/>
  </g>
 </g>
</g>
</g></svg>